<svg xmlns="http://www.w3.org/2000/svg" xmlns:xlink="http://www.w3.org/1999/xlink" width="200" zoomAndPan="magnify" viewBox="0 0 150 149.999998" height="200" preserveAspectRatio="xMidYMid meet" version="1.0"><rect x="-15" width="180" fill="#ffffff" y="-15" height="179.999997" fill-opacity="1"/><rect x="-15" width="180" fill="#ffffff" y="-15" height="179.999997" fill-opacity="1"/><path fill="#000000" d="M 18.75 0 L 131.25 0 C 131.863281 0 132.476562 0.03125 133.085938 0.0898438 C 133.699219 0.152344 134.304688 0.242188 134.90625 0.359375 C 135.511719 0.480469 136.105469 0.628906 136.691406 0.808594 C 137.28125 0.984375 137.859375 1.191406 138.425781 1.425781 C 138.992188 1.664062 139.546875 1.925781 140.089844 2.214844 C 140.628906 2.503906 141.15625 2.820312 141.667969 3.160156 C 142.175781 3.5 142.671875 3.867188 143.144531 4.257812 C 143.621094 4.644531 144.074219 5.058594 144.507812 5.492188 C 144.941406 5.925781 145.355469 6.378906 145.742188 6.855469 C 146.132812 7.328125 146.5 7.824219 146.839844 8.332031 C 147.179688 8.84375 147.496094 9.371094 147.785156 9.910156 C 148.074219 10.453125 148.335938 11.007812 148.574219 11.574219 C 148.808594 12.140625 149.015625 12.71875 149.191406 13.308594 C 149.371094 13.894531 149.519531 14.488281 149.640625 15.09375 C 149.757812 15.695312 149.847656 16.300781 149.910156 16.914062 C 149.96875 17.523438 150 18.136719 150 18.75 L 150 131.25 C 150 131.863281 149.96875 132.476562 149.910156 133.085938 C 149.847656 133.699219 149.757812 134.304688 149.640625 134.90625 C 149.519531 135.511719 149.371094 136.105469 149.191406 136.691406 C 149.015625 137.28125 148.808594 137.859375 148.574219 138.425781 C 148.335938 138.992188 148.074219 139.546875 147.785156 140.089844 C 147.496094 140.628906 147.179688 141.15625 146.839844 141.667969 C 146.5 142.175781 146.132812 142.671875 145.742188 143.144531 C 145.355469 143.621094 144.941406 144.074219 144.507812 144.507812 C 144.074219 144.941406 143.621094 145.355469 143.144531 145.742188 C 142.671875 146.132812 142.175781 146.5 141.667969 146.839844 C 141.15625 147.179688 140.628906 147.496094 140.089844 147.785156 C 139.546875 148.074219 138.992188 148.335938 138.425781 148.574219 C 137.859375 148.808594 137.28125 149.015625 136.691406 149.191406 C 136.105469 149.371094 135.511719 149.519531 134.90625 149.640625 C 134.304688 149.757812 133.699219 149.847656 133.085938 149.910156 C 132.476562 149.96875 131.863281 150 131.25 150 L 18.75 150 C 18.136719 150 17.523438 149.96875 16.914062 149.910156 C 16.300781 149.847656 15.695312 149.757812 15.09375 149.640625 C 14.488281 149.519531 13.894531 149.371094 13.308594 149.191406 C 12.71875 149.015625 12.140625 148.808594 11.574219 148.574219 C 11.007812 148.335938 10.453125 148.074219 9.910156 147.785156 C 9.371094 147.496094 8.84375 147.179688 8.332031 146.839844 C 7.824219 146.5 7.328125 146.132812 6.855469 145.742188 C 6.378906 145.355469 5.925781 144.941406 5.492188 144.507812 C 5.058594 144.074219 4.644531 143.621094 4.257812 143.144531 C 3.867188 142.671875 3.5 142.175781 3.160156 141.667969 C 2.820312 141.15625 2.503906 140.628906 2.214844 140.089844 C 1.925781 139.546875 1.664062 138.992188 1.425781 138.425781 C 1.191406 137.859375 0.984375 137.28125 0.808594 136.691406 C 0.628906 136.105469 0.480469 135.511719 0.359375 134.90625 C 0.242188 134.304688 0.152344 133.699219 0.0898438 133.085938 C 0.03125 132.476562 0 131.863281 0 131.25 L 0 18.75 C 0 18.136719 0.03125 17.523438 0.0898438 16.914062 C 0.152344 16.300781 0.242188 15.695312 0.359375 15.09375 C 0.480469 14.488281 0.628906 13.894531 0.808594 13.308594 C 0.984375 12.71875 1.191406 12.140625 1.425781 11.574219 C 1.664062 11.007812 1.925781 10.453125 2.214844 9.910156 C 2.503906 9.371094 2.820312 8.84375 3.160156 8.332031 C 3.5 7.824219 3.867188 7.328125 4.257812 6.855469 C 4.644531 6.378906 5.058594 5.925781 5.492188 5.492188 C 5.925781 5.058594 6.378906 4.644531 6.855469 4.257812 C 7.328125 3.867188 7.824219 3.5 8.332031 3.160156 C 8.84375 2.820312 9.371094 2.503906 9.910156 2.214844 C 10.453125 1.925781 11.007812 1.664062 11.574219 1.425781 C 12.140625 1.191406 12.71875 0.984375 13.308594 0.808594 C 13.894531 0.628906 14.488281 0.480469 15.09375 0.359375 C 15.695312 0.242188 16.300781 0.152344 16.914062 0.0898438 C 17.523438 0.03125 18.136719 0 18.75 0 Z M 18.75 0 " fill-opacity="1" fill-rule="nonzero"/><path fill="#25f4ee" d="M 64.761719 62.320312 L 64.761719 58.242188 C 63.363281 58.050781 61.941406 57.929688 60.492188 57.929688 C 43.015625 57.929688 28.800781 72.144531 28.800781 89.621094 C 28.800781 100.34375 34.160156 109.828125 42.328125 115.566406 C 37.054688 109.90625 33.816406 102.320312 33.816406 93.988281 C 33.816406 76.765625 47.632812 62.71875 64.761719 62.316406 Z M 64.761719 62.320312 " fill-opacity="1" fill-rule="nonzero"/><path fill="#25f4ee" d="M 65.511719 108.46875 C 73.308594 108.46875 79.667969 102.265625 79.957031 94.542969 L 79.984375 25.539062 L 92.589844 25.539062 C 92.328125 24.121094 92.1875 22.660156 92.1875 21.167969 L 74.964844 21.167969 L 74.941406 90.171875 C 74.652344 97.902344 68.292969 104.101562 60.496094 104.101562 C 58.074219 104.101562 55.789062 103.492188 53.78125 102.4375 C 56.414062 106.082031 60.6875 108.472656 65.515625 108.472656 Z M 65.511719 108.46875 " fill-opacity="1" fill-rule="nonzero"/><path fill="#25f4ee" d="M 116.136719 48.957031 L 116.136719 45.121094 C 111.328125 45.121094 106.847656 43.691406 103.089844 41.242188 C 106.4375 45.082031 110.980469 47.855469 116.136719 48.957031 Z M 116.136719 48.957031 " fill-opacity="1" fill-rule="nonzero"/><path fill="#fe2c55" d="M 103.09375 41.242188 C 99.429688 37.035156 97.203125 31.542969 97.203125 25.539062 L 92.589844 25.539062 C 93.804688 32.097656 97.699219 37.726562 103.09375 41.242188 Z M 103.09375 41.242188 " fill-opacity="1" fill-rule="nonzero"/><path fill="#fe2c55" d="M 60.492188 75.152344 C 52.511719 75.152344 46.015625 81.644531 46.015625 89.628906 C 46.015625 95.1875 49.171875 100.015625 53.773438 102.4375 C 52.058594 100.0625 51.035156 97.148438 51.035156 93.996094 C 51.035156 86.015625 57.527344 79.523438 65.507812 79.523438 C 66.996094 79.523438 68.425781 79.769531 69.78125 80.191406 L 69.78125 62.613281 C 68.382812 62.421875 66.960938 62.300781 65.507812 62.300781 C 65.257812 62.300781 65.011719 62.316406 64.757812 62.320312 L 64.757812 75.820312 C 63.410156 75.398438 61.976562 75.152344 60.488281 75.152344 Z M 60.492188 75.152344 " fill-opacity="1" fill-rule="nonzero"/><path fill="#fe2c55" d="M 116.136719 48.957031 L 116.136719 62.339844 C 107.207031 62.339844 98.9375 59.484375 92.183594 54.636719 L 92.183594 89.628906 C 92.183594 107.105469 77.964844 121.320312 60.492188 121.320312 C 53.738281 121.320312 47.476562 119.191406 42.328125 115.574219 C 48.121094 121.789062 56.367188 125.6875 65.511719 125.6875 C 82.988281 125.6875 97.203125 111.472656 97.203125 93.996094 L 97.203125 59.007812 C 103.957031 63.855469 112.230469 66.707031 121.160156 66.707031 L 121.160156 49.488281 C 119.4375 49.488281 117.757812 49.300781 116.140625 48.957031 Z M 116.136719 48.957031 " fill-opacity="1" fill-rule="nonzero"/><path fill="#ffffff" d="M 92.183594 89.625 L 92.183594 54.632812 C 98.9375 59.484375 107.207031 62.335938 116.136719 62.335938 L 116.136719 48.953125 C 110.980469 47.851562 106.4375 45.078125 103.089844 41.238281 C 97.695312 37.722656 93.800781 32.09375 92.585938 25.535156 L 79.980469 25.535156 L 79.953125 94.539062 C 79.664062 102.265625 73.304688 108.464844 65.507812 108.464844 C 60.679688 108.464844 56.40625 106.078125 53.773438 102.429688 C 49.167969 100.003906 46.015625 95.179688 46.015625 89.621094 C 46.015625 81.640625 52.511719 75.144531 60.492188 75.144531 C 61.980469 75.144531 63.410156 75.394531 64.761719 75.8125 L 64.761719 62.3125 C 47.632812 62.714844 33.816406 76.761719 33.816406 93.984375 C 33.816406 102.320312 37.054688 109.902344 42.328125 115.5625 C 47.480469 119.179688 53.738281 121.308594 60.492188 121.308594 C 77.964844 121.308594 92.183594 107.09375 92.183594 89.617188 Z M 92.183594 89.625 " fill-opacity="1" fill-rule="nonzero"/></svg>